<svg width="24" height="24" viewBox="0 0 24 24" fill="none" xmlns="http://www.w3.org/2000/svg">
<path d="M19 9C19 8.08075 18.819 7.1705 18.4672 6.32122C18.1154 5.47194 17.5998 4.70026 16.9498 4.05025C16.2998 3.40024 15.5281 2.88463 14.6788 2.53284C13.8295 2.18106 12.9193 2 12 2C11.0808 2 10.1705 2.18106 9.32125 2.53284C8.47197 2.88463 7.70029 3.40024 7.05028 4.05025C6.40027 4.70026 5.88466 5.47194 5.53287 6.32122C5.18109 7.1705 5.00003 8.08075 5.00003 9C5.00003 10.387 5.41003 11.677 6.10503 12.765H6.09703C8.45703 16.46 12 22 12 22L17.903 12.765H17.896C18.6164 11.6414 18.9996 10.3347 19 9ZM12 12C11.2044 12 10.4413 11.6839 9.87871 11.1213C9.3161 10.5587 9.00003 9.79565 9.00003 9C9.00003 8.20435 9.3161 7.44129 9.87871 6.87868C10.4413 6.31607 11.2044 6 12 6C12.7957 6 13.5587 6.31607 14.1214 6.87868C14.684 7.44129 15 8.20435 15 9C15 9.79565 14.684 10.5587 14.1214 11.1213C13.5587 11.6839 12.7957 12 12 12Z" fill="#C7954B"/>
</svg>
