<svg width="60" height="84" viewBox="0 0 60 84" fill="none" xmlns="http://www.w3.org/2000/svg">
<path d="M59.1667 29.4999C59.1667 25.6697 58.4122 21.877 56.9465 18.3383C55.4807 14.7997 53.3323 11.5843 50.6239 8.87597C47.9156 6.1676 44.7003 4.01919 41.1616 2.55343C37.6229 1.08767 33.8302 0.333252 30 0.333252C26.1698 0.333252 22.377 1.08767 18.8384 2.55343C15.2997 4.01919 12.0844 6.1676 9.37603 8.87597C6.66766 11.5843 4.51926 14.7997 3.05349 18.3383C1.58773 21.877 0.833313 25.6697 0.833313 29.4999C0.833313 35.2791 2.54165 40.6541 5.43748 45.1874H5.40415C15.2375 60.5833 30 83.6666 30 83.6666L54.5958 45.1874H54.5667C57.5684 40.5056 59.1648 35.0613 59.1667 29.4999ZM30 41.9999C26.6848 41.9999 23.5054 40.683 21.1611 38.3388C18.8169 35.9946 17.5 32.8151 17.5 29.4999C17.5 26.1847 18.8169 23.0053 21.1611 20.6611C23.5054 18.3169 26.6848 16.9999 30 16.9999C33.3152 16.9999 36.4946 18.3169 38.8388 20.6611C41.183 23.0053 42.5 26.1847 42.5 29.4999C42.5 32.8151 41.183 35.9946 38.8388 38.3388C36.4946 40.683 33.3152 41.9999 30 41.9999Z" fill="#C7954B"/>
</svg>
