<svg width="24" height="24" viewBox="0 0 24 24" fill="none" xmlns="http://www.w3.org/2000/svg">
<path d="M15.2475 16.11L16.9275 14.43C17.1537 14.2066 17.44 14.0536 17.7516 13.9897C18.0631 13.9258 18.3865 13.9537 18.6825 14.07L20.73 14.8875C21.0291 15.0089 21.2855 15.2162 21.4671 15.4831C21.6486 15.75 21.747 16.0647 21.75 16.3875V20.1375C21.7482 20.3571 21.7021 20.5741 21.6143 20.7753C21.5265 20.9766 21.3988 21.158 21.2391 21.3087C21.0793 21.4594 20.8907 21.5761 20.6846 21.652C20.4786 21.7278 20.2593 21.7612 20.04 21.75C5.69246 20.8575 2.79746 8.70753 2.24996 4.05753C2.22455 3.82918 2.24777 3.59804 2.3181 3.37931C2.38843 3.16058 2.50427 2.95922 2.65801 2.78848C2.81175 2.61774 2.9999 2.48148 3.21008 2.38868C3.42026 2.29587 3.64771 2.24862 3.87746 2.25003H7.49996C7.82322 2.25099 8.1388 2.34863 8.40611 2.5304C8.67342 2.71217 8.88024 2.96976 8.99996 3.27003L9.81746 5.31753C9.93765 5.61233 9.96832 5.93601 9.90562 6.24814C9.84293 6.56027 9.68966 6.847 9.46496 7.07253L7.78496 8.75253C7.78496 8.75253 8.75246 15.3 15.2475 16.11Z" fill="#C7954B"/>
<path d="M15.0075 15.86L16.6875 14.18C16.9138 13.9566 17.2 13.8036 17.5116 13.7397C17.8231 13.6758 18.1465 13.7037 18.4425 13.82L20.49 14.6375C20.7891 14.7589 21.0456 14.9662 21.2271 15.2331C21.4086 15.5 21.507 15.8147 21.51 16.1375V19.8875C21.5082 20.1071 21.4621 20.3241 21.3743 20.5253C21.2865 20.7266 21.1589 20.908 20.9991 21.0587C20.8393 21.2094 20.6507 21.3261 20.4447 21.402C20.2386 21.4778 20.0193 21.5112 19.8 21.5C5.45249 20.6075 2.55749 8.45753 2.00999 3.80753C1.98457 3.57918 2.00779 3.34804 2.07812 3.12931C2.14845 2.91058 2.2643 2.70922 2.41804 2.53848C2.57178 2.36774 2.75993 2.23148 2.97011 2.13868C3.18029 2.04587 3.40773 1.99862 3.63749 2.00003H7.25999C7.58324 2.00099 7.89882 2.09863 8.16613 2.2804C8.43345 2.46217 8.64026 2.71976 8.75999 3.02003L9.57749 5.06753C9.69768 5.36233 9.72834 5.68601 9.66565 5.99814C9.60296 6.31027 9.44969 6.597 9.22499 6.82253L7.54499 8.50253C7.54499 8.50253 8.51249 15.05 15.0075 15.86Z" fill="#C7954B"/>
</svg>
